<svg xmlns="http://www.w3.org/2000/svg" viewBox="0 0 167.64 81.53"><defs><style>.cls-1{fill:#263440;}</style></defs><g id="Layer_2" data-name="Layer 2"><g id="Layer_1-2" data-name="Layer 1"><g id="Layer_1-3" data-name="Layer_1"><path class="cls-1" d="M74.43,59.37H6.72V6.72h89v9.09h6.72V3.36A3.35,3.35,0,0,0,99,0H3.36A3.35,3.35,0,0,0,0,3.36V62.74a3.35,3.35,0,0,0,3.36,3.35H74.42V59.37Z"/><path class="cls-1" d="M54.56,62.73a3.36,3.36,0,0,0-6.72,0v14a3.36,3.36,0,1,0,6.72,0Z"/><path class="cls-1" d="M36.36,74.81a3.36,3.36,0,1,0,0,6.71H66a3.36,3.36,0,1,0,0-6.71Z"/><path class="cls-1" d="M4.64,47.47a2.12,2.12,0,0,0,0,4.13H74.43V47.47Z"/><path class="cls-1" d="M82.67,17.49h44.88a6.59,6.59,0,0,1,6.57,6.57V75a6.59,6.59,0,0,1-6.57,6.57H82.67A6.57,6.57,0,0,1,76.11,75V24.06a6.57,6.57,0,0,1,6.56-6.57Zm44.72,6.72H82.83v50.6h44.56V24.21Z"/><path class="cls-1" d="M79.46,64.47a1.68,1.68,0,0,0,0,3.36h51.29a1.68,1.68,0,1,0,0-3.36Z"/><circle class="cls-1" cx="105.11" cy="71.59" r="1.51"/><path class="cls-1" d="M100.25,26a1.26,1.26,0,0,0,0,2.52H110A1.26,1.26,0,1,0,110,26Z"/><path class="cls-1" d="M141.33,33h21.42a4.87,4.87,0,0,1,3.45,1.44l-2.37,2.37,2.38-2.37c.1.1.2.21.29.32a4.89,4.89,0,0,1,1.14,3.13V76.63a4.86,4.86,0,0,1-1.43,3.44l-2.38-2.36,2.38,2.38-.33.29a4.87,4.87,0,0,1-3.13,1.14H141.33a4.86,4.86,0,0,1-3.44-1.43l2.36-2.38-2.38,2.38a4.09,4.09,0,0,1-.28-.33,4.88,4.88,0,0,1-1.15-3.13V37.84a4.88,4.88,0,0,1,1.43-3.44l2.38,2.36-2.38-2.37a4.28,4.28,0,0,1,.33-.29A4.9,4.9,0,0,1,141.33,33Zm19.6,6.73H143.16V74.81h17.77V39.68Z"/><path class="cls-1" d="M139.8,65.38a1.69,1.69,0,0,0,0,3.37h24.49a1.69,1.69,0,0,0,0-3.37Z"/><circle class="cls-1" cx="152.04" cy="71.59" r="1.51"/><path class="cls-1" d="M149.85,41.67a1.26,1.26,0,1,0,0,2.52h4.38a1.26,1.26,0,0,0,0-2.52Z"/></g></g></g></svg>