<svg xmlns="http://www.w3.org/2000/svg" viewBox="0 0 78.08 87.45"><defs><style>.cls-1{fill:#263440;}</style></defs><g id="Layer_2" data-name="Layer 2"><g id="Layer_1-2" data-name="Layer 1"><path class="cls-1" d="M37.53,24.55V39.26a12.88,12.88,0,0,1-4.75-1.61,6.54,6.54,0,0,1-3-5.77,6.9,6.9,0,0,1,3.05-6.05A8.78,8.78,0,0,1,37.53,24.55Z"/><path class="cls-1" d="M47.88,32.16h0c0-.27-.06-.55-.1-.81C47.81,31.61,47.85,31.89,47.88,32.16Z"/><path class="cls-1" d="M35.91,65.78a19.93,19.93,0,0,1-2.19-.38C34.41,65.56,35.14,65.68,35.91,65.78Z"/><path class="cls-1" d="M35.43,61.27l-.21,0a7.11,7.11,0,0,1-1.28-.42,7.36,7.36,0,0,0,1.28.41Z"/><path class="cls-1" d="M49.09,53.65a7.45,7.45,0,0,1-2.6,5.91,8.25,8.25,0,0,1-5.55,2V45.17a13.41,13.41,0,0,1,4.79,1.73C48,48.32,49.09,50.56,49.09,53.65Z"/><path class="cls-1" d="M39,0C30.65,8.38,0,9.42,0,9.42a109.91,109.91,0,0,0,5.13,34.3C15.73,76.13,39,87.45,39,87.45S62.35,76.13,73,43.72a109.62,109.62,0,0,0,5.13-34.3S47.42,8.38,39,0ZM27.32,24.62c2.28-2.71,5.69-4.17,10.21-4.41V14.69h3.41v5.52a17.88,17.88,0,0,1,5.71,1.34,9,9,0,0,1,1,.51,8.25,8.25,0,0,1,.94.59c.23.16.43.33.64.49l.6.54h0A9.75,9.75,0,0,1,51.63,26c.16.27.3.54.43.81a11.64,11.64,0,0,1,.9,3.3A9.19,9.19,0,0,1,53,31a.09.09,0,0,1,0,.07,9.22,9.22,0,0,1,0,1.06H47.87c0-.27-.06-.55-.1-.81a2.13,2.13,0,0,0,0-.25,12.61,12.61,0,0,0-.52-2.21A6.29,6.29,0,0,0,46,26.7a4.94,4.94,0,0,0-.47-.45,4.69,4.69,0,0,0-.63-.47l-.15-.11h0a.51.51,0,0,0-.16-.09l-.35-.2-.38-.17a8.47,8.47,0,0,0-2.89-.63V40.06l.66.18c.41.1.8.2,1.17.31.9.24,1.6.44,2.11.61a15.6,15.6,0,0,1,5.2,2.56h0c2.81,2.2,4.2,5.35,4.2,9.45a11.9,11.9,0,0,1-5.75,10.72A15.75,15.75,0,0,1,40.94,66v6.8H37.53V66c-.56,0-1.1-.1-1.62-.17a19.93,19.93,0,0,1-2.19-.38,17.46,17.46,0,0,1-1.88-.55,11.35,11.35,0,0,1-7.19-7.51c-.14-.41-.27-.84-.37-1.27,0-.1-.05-.2-.07-.3l-.09-.38L24,54.7c0-.23-.07-.46-.09-.69s-.05-.48-.07-.71a14.9,14.9,0,0,1-.05-1.64H29c.06,3,.71,5.28,1.93,6.84a7.07,7.07,0,0,0,3,2.31,7.36,7.36,0,0,0,1.28.41l.21.05a20.14,20.14,0,0,0,2.1.28V44.43l-.81-.14c-.52-.11-1-.23-1.54-.36l-.75-.21a19.83,19.83,0,0,1-4.89-2.15,10.28,10.28,0,0,1-5-9.25A11.51,11.51,0,0,1,27.32,24.62Z"/><path class="cls-1" d="M37.53,44.42h0l-.81-.14Z"/><rect class="cls-1" x="39.04" y="14.69" width="1.9" height="0.01"/><path class="cls-1" d="M49.86,23.68h0c-.19-.19-.39-.37-.6-.55Z"/><path class="cls-1" d="M53.08,32.16h0c0-.35,0-.71,0-1.06A9.22,9.22,0,0,1,53.08,32.16Z"/><path class="cls-1" d="M37.53,44.42h0l-.81-.14Z"/><rect class="cls-1" x="39.04" y="14.69" width="1.9" height="0.01"/><path class="cls-1" d="M42.77,40.55c-.37-.11-.76-.21-1.17-.31Z"/><path class="cls-1" d="M49.86,23.68h0c-.19-.19-.39-.37-.6-.55Z"/><path class="cls-1" d="M53.08,32.16h0c0-.35,0-.71,0-1.06A9.22,9.22,0,0,1,53.08,32.16Z"/></g></g></svg>