<svg xmlns="http://www.w3.org/2000/svg" viewBox="0 0 88.6 69.31"><defs><style>.cls-1{fill:#263440;}</style></defs><g id="Layer_2" data-name="Layer 2"><g id="Layer_1-2" data-name="Layer 1"><path class="cls-1" d="M83.7,0a4.91,4.91,0,0,0-4.9,4.9,4.78,4.78,0,0,0,2.46,4.22,1.52,1.52,0,0,1,.54,2.08L65.3,39.78a1.51,1.51,0,0,1-1.31.77,1.49,1.49,0,0,1-1.31-.77L46.17,11.2A1.5,1.5,0,0,1,46,10.05a1.61,1.61,0,0,1,.7-.93A4.8,4.8,0,0,0,49.2,4.9a4.9,4.9,0,0,0-9.8,0,4.78,4.78,0,0,0,2.46,4.22,1.52,1.52,0,0,1,.54,2.08L25.9,39.78a1.5,1.5,0,0,1-2.62,0L6.77,11.2a1.5,1.5,0,0,1,.57-2.08A4.84,4.84,0,0,0,9.8,4.9,4.9,4.9,0,1,0,4.9,9.8a1.52,1.52,0,0,1,1.51,1.53v58H82.16V57.66h-34a1.51,1.51,0,0,1,0-3h34V11.33A1.54,1.54,0,0,1,83.7,9.8a4.9,4.9,0,0,0,0-9.8ZM32.78,57.66h-10a1.51,1.51,0,1,1,0-3h10a1.51,1.51,0,1,1,0,3Z"/></g></g></svg>