<svg xmlns="http://www.w3.org/2000/svg" viewBox="0 0 82 82"><defs><style>.cls-1{fill:#263440;}</style></defs><g id="Layer_2" data-name="Layer 2"><g id="Layer_1-2" data-name="Layer 1"><path class="cls-1" d="M11.71,61.5V73.21a2.93,2.93,0,0,0,5,2.07L30.5,61.5h1.71v2.93A8.8,8.8,0,0,0,41,73.21H54.83l14,8.37a2.92,2.92,0,0,0,4.43-2.51V73.21A8.79,8.79,0,0,0,82,64.43V38.07a8.79,8.79,0,0,0-8.79-8.78H70.29V11.71A11.73,11.73,0,0,0,58.57,0H11.71A11.73,11.73,0,0,0,0,11.71V49.79A11.73,11.73,0,0,0,11.71,61.5ZM70.29,49.79V35.14h2.92a2.93,2.93,0,0,1,2.93,2.93V64.43a2.93,2.93,0,0,1-2.93,2.93H70.29a2.93,2.93,0,0,0-2.93,2.93V73.9L57.15,67.77a3,3,0,0,0-1.51-.41H41a2.94,2.94,0,0,1-2.93-2.93V61.5h20.5A11.73,11.73,0,0,0,70.29,49.79ZM5.86,11.71a5.85,5.85,0,0,1,5.85-5.85H58.57a5.86,5.86,0,0,1,5.86,5.85V49.79a5.86,5.86,0,0,1-5.86,5.85H29.29a2.9,2.9,0,0,0-2.07.86l-9.65,9.64V58.57a2.93,2.93,0,0,0-2.93-2.93H11.71a5.85,5.85,0,0,1-5.85-5.85Z"/><path class="cls-1" d="M25.1,19.92a10.25,10.25,0,1,1,15,11,4.33,4.33,0,0,0-2,3.84v3.28a2.93,2.93,0,0,1-5.86,0V34.79a10.13,10.13,0,0,1,5-9,4.4,4.4,0,1,0-6.42-4.74,2.93,2.93,0,1,1-5.74-1.16Z"/><path class="cls-1" d="M38.07,46.86a2.93,2.93,0,1,1-2.93-2.93A2.93,2.93,0,0,1,38.07,46.86Z"/></g></g></svg>