<svg xmlns="http://www.w3.org/2000/svg" viewBox="0 0 78.63 62.14"><defs><style>.cls-1{fill:#263440;}</style></defs><g id="Layer_2" data-name="Layer 2"><g id="Layer_1-2" data-name="Layer 1"><path class="cls-1" d="M73.93,0H4.7A5,5,0,0,0,0,5.22v51.7a5,5,0,0,0,4.7,5.22H73.93a5,5,0,0,0,4.7-5.22V5.22A5,5,0,0,0,73.93,0ZM63.53,2.82h3.92A2.71,2.71,0,0,1,70,5.65a2.71,2.71,0,0,1-2.55,2.83H63.53A2.7,2.7,0,0,1,61,5.65,2.7,2.7,0,0,1,63.53,2.82Zm-13.22,0h3.92a2.71,2.71,0,0,1,2.55,2.83,2.71,2.71,0,0,1-2.55,2.83H50.31a2.7,2.7,0,0,1-2.54-2.83A2.7,2.7,0,0,1,50.31,2.82Zm-13.64,0h3.91a2.7,2.7,0,0,1,2.55,2.83,2.7,2.7,0,0,1-2.55,2.83H36.67a2.71,2.71,0,0,1-2.55-2.83A2.71,2.71,0,0,1,36.67,2.82Zm-13.16,0h3.92A2.7,2.7,0,0,1,30,5.65a2.7,2.7,0,0,1-2.54,2.83H23.51A2.71,2.71,0,0,1,21,5.65,2.71,2.71,0,0,1,23.51,2.82Zm-13.65,0h3.92a2.71,2.71,0,0,1,2.55,2.83,2.71,2.71,0,0,1-2.55,2.83H9.86A2.71,2.71,0,0,1,7.31,5.65,2.71,2.71,0,0,1,9.86,2.82ZM13.78,59H9.86a2.85,2.85,0,0,1,0-5.66h3.92a2.85,2.85,0,0,1,0,5.66Zm13.65,0H23.51a2.85,2.85,0,0,1,0-5.66h3.92a2.85,2.85,0,0,1,0,5.66Zm13.15,0H36.67a2.85,2.85,0,0,1,0-5.66h3.91a2.85,2.85,0,0,1,0,5.66Zm13.65,0H50.31a2.85,2.85,0,0,1,0-5.66h3.92a2.85,2.85,0,0,1,0,5.66Zm13.22,0H63.53a2.85,2.85,0,0,1,0-5.66h3.92a2.85,2.85,0,0,1,0,5.66ZM72.18,51h-66V10.65h66Z"/><polygon class="cls-1" points="30.63 14.72 30.63 46.91 55.05 29.44 30.63 14.72"/><rect class="cls-1" x="27.12" y="14.72" width="2.18" height="32.19"/></g></g></svg>